<svg viewBox="0 0 16 16" height="48" width="48" focusable="false" role="img" fill="currentColor" xmlns="http://www.w3.org/2000/svg" class="StyledIconBase-ea9ulj-0 duvCfz"><title>CollectionPlayFill icon</title><path fill-rule="evenodd" d="M1.5 14.5A1.5 1.5 0 010 13V6a1.5 1.5 0 011.5-1.5h13A1.5 1.5 0 0116 6v7a1.5 1.5 0 01-1.5 1.5h-13zm5.265-7.924A.5.5 0 006 7v5a.5.5 0 00.765.424l4-2.5a.5.5 0 000-.848l-4-2.5zM2 3a.5.5 0 00.5.5h11a.5.5 0 000-1h-11A.5.5 0 002 3zm2-2a.5.5 0 00.5.5h7a.5.5 0 000-1h-7A.5.5 0 004 1z"></path></svg>