<?xml version="1.0" encoding="UTF-8"?>
<!DOCTYPE svg PUBLIC "-//W3C//DTD SVG 1.1//EN" "http://www.w3.org/Graphics/SVG/1.1/DTD/svg11.dtd">
<!-- Creator: CorelDRAW 2019 (64-Bit) -->
<svg xmlns="http://www.w3.org/2000/svg" xml:space="preserve" width="210mm" height="210mm" version="1.1" style="shape-rendering:geometricPrecision; text-rendering:geometricPrecision; image-rendering:optimizeQuality; fill-rule:evenodd; clip-rule:evenodd"
viewBox="0 0 21000 21000"
 xmlns:xlink="http://www.w3.org/1999/xlink"
 xmlns:xodm="http://www.corel.com/coreldraw/odm/2003">
 <defs>
  <style type="text/css">
   <![CDATA[
    .fil0 {fill:#414142}
    .fil1 {fill:#FDCB61}
   ]]>
  </style>
 </defs>
 <g id="Слой_x0020_1">
  <metadata id="CorelCorpID_0Corel-Layer"/>
  <g id="_2006212683728">
   <path class="fil0" d="M3422.72 17519.51c-87.57,-103.11 -643.31,-1065.08 -673.29,-1188.83 25.82,-106.57 1317.81,-2364.86 1413.47,-2474.04l107.74 -214.96 3139.01 -4.07 1503.49 2610.72 -1589.85 2797.56 -3034.4 -0.62c-115.21,-156.35 -836.56,-1396.94 -866.17,-1525.76zm6043.78 -7106.78l3247.16 3.45c177.61,453.46 1338.07,2155.36 1447.67,2515.42l-1588.03 2746.65 -3017.72 3.23 -1559.54 -2723.62 1470.46 -2545.13zm-6423.86 680.7l-579.52 -996.55c70.15,-274.94 592.47,-1044.47 757.79,-1359.45l739.44 -1284.77c40.98,-61.6 39.85,-22.2 68.03,-54.23l0 0c84.2,-50.63 2755.22,-21.47 3076.93,-17.28 182.63,240.76 1452.52,2401.99 1521.3,2620.93 -261.32,471.55 -547.3,935.22 -806.16,1407.09 -119.39,217.63 -696.54,1294.59 -829.81,1370.29l-2955.99 0c-109.15,-75.41 -935.36,-1505.66 -992.01,-1686.03zm11787.82 -3993.65c26.09,-81.68 -28.63,-30.7 64.26,-54.78l3052.39 0 739 1295.84 775.58 1344.3 -1606.29 2782.28 -2979.86 -5.33c-209.95,-298.47 -1528.66,-2690.08 -1555.63,-2785.33 179.42,-319.64 1385.56,-2493.25 1510.55,-2576.98zm-5205.12 -2952.88c159.65,-81.47 2412.94,-25.77 2795.34,-25.77l642.61 1122.74c97.79,88.11 790.01,1314.6 894.91,1516.47l-1525.87 2660.55 -3187.02 -3.23 -1430.37 -2507.44 1600.47 -2782.52 209.93 19.2zm-6490.61 841.76c-93.62,-67.11 -594.09,-989.03 -701.09,-1167.72 232.07,-461.31 527.62,-905.67 776.51,-1359.7 125.69,-229.29 265.8,-447.81 385.16,-675.15l407.2 -685.22 3116.66 0c55.46,228.94 428.74,728.27 546.21,1007.15 68.57,54.04 867.96,1439.59 940.81,1600.38l-1626.94 2811.72 -2994.06 -4.01c-129.51,-177.43 -827.69,-1376.46 -850.46,-1527.45zm707.13 14918.02l4007.38 -4.33 1932.24 -3372.62 3314.43 5.53c119.45,-127.62 842.59,-1438.57 943.77,-1605.46 156.41,-257.95 825.27,-1486.12 934.72,-1603.47l3437.26 -2.11c51.32,-162.21 1550.27,-2742.14 1623.93,-2804.81l417.01 -746.94 -2010.4 -3570.27 -3868.78 7.41 -1642.98 -2921.43 -3626.41 -2.44 -1706.11 -3018.46 -4109.49 -1.8c-174.15,343.39 -1980.77,3395.59 -2026.44,3566.66l1812.53 3078.58c-51.14,156.67 -343.78,635.92 -441.51,796.2 -158.54,260.02 -305.12,530.45 -458.71,794.37 -303.71,521.84 -594.77,1052.14 -903.57,1572.9l1957.23 3327.79 -1677.31 2924.56 2091.21 3580.14z"/>
   <path class="fil1" d="M9933.59 10705.57l2699.03 15.41 -9.33 261.2 -2483.87 0.59c-136.35,92.11 -1146.56,1868.36 -1315.9,2163.05l-246.2 -125.11 1356.27 -2315.14zm-1937.55 2252.29l1559.54 2723.62 3017.72 -3.23 1588.03 -2746.65c-109.6,-360.06 -1270.06,-2061.96 -1447.67,-2515.42l-3247.16 -3.45 -1470.46 2545.13z"/>
   <path class="fil1" d="M3841.86 19906.68l599.37 993.11 3738.24 -6.59c5.02,-5.71 12.92,-22.13 14.84,-17.29l1784.46 -3099.36 3566.48 0c256.66,-510.96 607.24,-1039.59 888.76,-1553.15 166.86,-304.4 819.41,-1319.99 878.4,-1563.5l3470.09 0 1796.07 -3117.34c-77.74,-303.97 -471.06,-745.59 -542.98,-1023.15 -73.66,62.67 -1572.61,2642.6 -1623.93,2804.81l-3437.26 2.11c-109.45,117.35 -778.31,1345.52 -934.72,1603.47 -101.18,166.89 -824.32,1477.84 -943.77,1605.46l-3314.43 -5.53 -1932.24 3372.62 -4007.38 4.33z"/>
   <path class="fil1" d="M4420.21 7803.36l2662.88 15.85 -15.42 269.52 -2454.68 0.92 74.01 176.04 -1644.36 2827.74c56.65,180.37 882.86,1610.62 992.01,1686.03l2955.99 0c133.27,-75.7 710.42,-1152.66 829.81,-1370.29 258.86,-471.87 544.84,-935.54 806.16,-1407.09 -68.78,-218.94 -1338.67,-2380.17 -1521.3,-2620.93 -321.71,-4.19 -2827.12,-49.85 -2911.31,0.78l226.21 421.43z"/>
   <path class="fil1" d="M4162.9 13856.64l321.57 501.9c106.78,-106.3 91.22,-212.05 224.92,-284.76l2646.57 0 -11.88 276.7 -2509.47 -3.46 -189.76 345.01c76.9,54.5 170.93,229.95 193.05,321.3l-1415.18 2506.18c29.61,128.82 750.96,1369.41 866.17,1525.76l3034.4 0.62 1589.85 -2797.56 -1503.49 -2610.72 -3139.01 4.07 -107.74 214.96z"/>
   <path class="fil1" d="M13063.29 5243.87l-2827.47 1.87c-65.85,-130.03 -160.29,-251.2 -192.79,-385.88l-168.84 0.28 -1268.19 2169.44 -236.32 -145.23c60.1,-161.2 1276.86,-2213.1 1362.93,-2299.57l117.64 -1.91 -224.91 -435.97 -209.93 -19.2 -1600.47 2782.52 1430.37 2507.44 3187.02 3.23 1525.87 -2660.55c-104.9,-201.87 -797.12,-1428.36 -894.91,-1516.47z"/>
   <path class="fil1" d="M18686.11 8340.84l-3148.78 -10.85 -224.92 -388.85c-169.93,117.49 -1052.72,1846.56 -1223.31,1989.07l-218.92 -122.38c126.53,-362.15 1207.9,-1937.03 1249.91,-2184.49l-289.63 -523.56c-124.99,83.73 -1331.13,2257.34 -1510.55,2576.98 26.97,95.25 1345.68,2486.86 1555.63,2785.33l2979.86 5.33 1606.29 -2782.28 -775.58 -1344.3z"/>
   <path class="fil1" d="M3134.73 4988.66c22.77,150.99 720.95,1350.02 850.46,1527.45l2994.06 4.01 1626.94 -2811.72c-72.85,-160.79 -872.24,-1546.34 -940.81,-1600.38l-2827.48 -11.36 -1703.17 2892z"/>
   <path class="fil0" d="M2999.73 3860.11l256.21 145.71c435.59,-667.81 844.41,-1492.41 1236.58,-2093.64 61.65,-94.5 -57.67,-74.61 313.2,-72.36l2249.18 0.05 0 -289.18 -2698.95 0 -1356.22 2309.42z"/>
   <path class="fil0" d="M4612.99 8089.65l2454.68 -0.92 15.42 -269.52 -2662.88 -15.85c-144.98,85.86 -1367.85,2269.42 -1381.6,2326.15l221.23 132.85 170.75 -254.94c223.68,-361.14 1025.95,-1836.95 1182.4,-1917.77z"/>
   <path class="fil0" d="M4484.47 14358.54l-1182.13 2011.6 248.05 157.29 1094.46 -1835.4 189.76 -345.01 2509.47 3.46 11.88 -276.7 -2646.57 0c-133.7,72.71 -118.14,178.46 -224.92,284.76z"/>
   <path class="fil0" d="M15120.09 7623.34c-42.01,247.46 -1123.38,1822.34 -1249.91,2184.49l218.92 122.38c170.59,-142.51 1053.38,-1871.58 1223.31,-1989.07l62.98 -157.75 2539.59 0.61 0 -289.18 -2698.95 0 -95.94 128.52z"/>
   <path class="fil0" d="M10043.03 4859.86l2377.65 0.28 0 -289.18 -2570.43 11.91 -117.64 1.91c-86.07,86.47 -1302.83,2138.37 -1362.93,2299.57l236.32 145.23 1268.19 -2169.44 168.84 -0.28z"/>
   <path class="fil0" d="M8577.32 13020.71l246.2 125.11c169.34,-294.69 1179.55,-2070.94 1315.9,-2163.05l2483.87 -0.59 9.33 -261.2 -2699.03 -15.41 -1356.27 2315.14z"/>
  </g>
 </g>
</svg>
